<svg height="1332pt" viewBox="-41 -41 1332.5013 1332" width="1332pt" xmlns="http://www.w3.org/2000/svg"><path d="m1068.042969 331.511719c2.074219.554687 4.207031.828125 6.3125.828125 6.386719 0 12.617187-2.507813 17.253906-7.144532l147.886719-147.898437c6.167968-6.160156 8.578125-15.140625 6.316406-23.5625-2.257812-8.417969-8.835938-14.996094-17.253906-17.25l-95.246094-25.53125-25.527344-95.234375c-2.25-8.425781-8.816406-14.996094-17.246094-17.265625-8.425781-2.253906-17.40625.15625-23.566406 6.328125l-147.890625 147.886719c-6.164062 6.167969-8.566406 15.136719-6.3125 23.5625l25.511719 95.242187-.527344.539063c-103.734375-95.292969-237.429687-147.496094-379.15625-147.496094-135.90625 0-267.097656 49.261719-369.402344 138.726563-10.144531 8.863281-11.179687 24.285156-2.300781 34.425781 8.863281 10.144531 24.285157 11.179687 34.425781 2.304687 93.414063-81.691406 213.1875-126.679687 337.277344-126.679687 132.496094 0 253.414063 50.570312 344.472656 133.410156l-34.550781 34.542969c-82.167969-74.023438-190.878906-119.15625-309.921875-119.15625-255.609375 0-463.574218 207.964844-463.574218 463.578125 0 255.617187 207.964843 463.574219 463.574218 463.574219 255.617188 0 463.578125-207.957032 463.578125-463.574219 0-119.042969-45.128906-227.742188-119.148437-309.917969l34.542968-34.542969c82.839844 91.050781 133.402344 211.964844 133.402344 344.460938 0 282.527343-229.859375 512.375-512.375 512.375s-512.375-229.847657-512.375-512.375c0-89.816407 23.75-178.394531 68.65625-256.1875 6.734375-11.664063 2.730469-26.585938-8.9375-33.328125-11.660156-6.738282-26.589844-2.734375-33.328125 8.929687-49.183593 85.199219-75.1875 182.222657-75.1875 280.59375 0 149.894531 58.378907 290.820313 164.367188 396.808594 105.996093 105.988281 246.914062 164.355469 396.804687 164.355469s290.808594-58.367188 396.808594-164.355469c105.988281-105.988281 164.363281-246.914063 164.363281-396.808594 0-141.726562-52.21875-275.410156-147.496093-379.15625l.519531-.53125zm-.980469-50.78125-54.433594-14.578125 108.058594-108.050782 54.429688 14.578126zm4.53125-211.5625 14.574219 54.433593-108.039063 108.039063-14.574218-54.421875zm-98.214844 616.507812c0 228.71875-186.070312 414.769531-414.78125 414.769531-228.703125 0-414.777344-186.050781-414.777344-414.769531 0-228.707031 186.074219-414.765625 414.777344-414.765625 105.589844 0 202.082032 39.683594 275.375 104.886719l-34.546875 34.550781c-64.40625-56.410156-148.699219-90.640625-240.828125-90.640625-201.804687 0-365.980468 164.171875-365.980468 365.96875 0 201.804688 164.175781 365.984375 365.980468 365.984375 88.957032 0 174.765625-32.34375 241.585938-91.078125 10.121094-8.886719 11.121094-24.304687 2.226562-34.429687-8.890625-10.121094-24.3125-11.113282-34.429687-2.222656-57.917969 50.898437-132.28125 78.929687-209.382813 78.929687-174.898437 0-317.183594-142.285156-317.183594-317.183594 0-174.890625 142.292969-317.171875 317.183594-317.171875 78.6875 0 150.753906 28.804688 206.257813 76.410156l-34.613281 34.609376c-46.550782-38.828126-106.410157-62.222657-171.644532-62.222657-147.984375 0-268.386718 120.386719-268.386718 268.375s120.402343 268.386719 268.386718 268.386719c147.980469 0 268.386719-120.398438 268.386719-268.386719 0-65.214843-23.398437-125.085937-62.242187-171.644531l34.613281-34.605469c47.613281 55.496094 76.425781 127.574219 76.425781 206.25 0 33.453125-5.253906 66.542969-15.644531 98.34375-4.171875 12.820313 2.828125 26.589844 15.644531 30.765625 12.808594 4.167969 26.585938-2.820312 30.753906-15.628906 11.96875-36.707031 18.042969-74.875 18.042969-113.480469 0-92.136719-34.246094-176.417969-90.644531-240.828125l34.546875-34.550781c65.214843 73.308594 104.898437 169.789063 104.898437 275.378906zm-341.585937 0c0 40.363281-32.839844 73.199219-73.195313 73.199219-40.359375 0-73.195312-32.835938-73.195312-73.199219 0-40.355469 32.835937-73.183593 73.195312-73.183593 11.289063 0 21.980469 2.566406 31.539063 7.144531l-48.792969 48.789062c-9.527344 9.527344-9.527344 24.976563 0 34.507813 4.773438 4.761718 11.007812 7.140625 17.253906 7.140625s12.484375-2.378907 17.25-7.140625l48.789063-48.792969c4.585937 9.558594 7.15625 20.246094 7.15625 31.535156zm-5.976563-101.726562c-19.285156-12.785157-42.390625-20.257813-67.21875-20.257813-67.269531 0-121.992187 54.722656-121.992187 121.976563 0 67.277343 54.722656 121.992187 121.992187 121.992187 67.269532 0 121.996094-54.714844 121.996094-121.992187 0-24.824219-7.472656-47.925781-20.261719-67.21875l69.753907-69.757813c30.082031 37.585938 48.101562 85.222656 48.101562 136.976563 0 121.085937-98.507812 219.589843-219.589844 219.589843-121.074218 0-219.589844-98.503906-219.589844-219.589843 0-121.078125 98.515626-219.570313 219.589844-219.570313 51.773438 0 99.402344 18.007813 136.988282 48.085938zm0 0"/><path d="m118.25 377.625c4.441406 3.445312 9.707031 5.109375 14.925781 5.109375 7.292969 0 14.492188-3.246094 19.300781-9.453125l.492188-.625c8.214844-10.671875 6.230469-26-4.449219-34.222656-10.675781-8.222656-25.992187-6.242188-34.210937 4.429687l-.40625.523438c-8.242188 10.648437-6.304688 25.976562 4.347656 34.238281zm0 0"/><path d="m875.78125 861.339844c0 13.480468-10.917969 24.398437-24.398438 24.398437-13.476562 0-24.398437-10.917969-24.398437-24.398437 0-13.460938 10.921875-24.398438 24.398437-24.398438 13.480469 0 24.398438 10.9375 24.398438 24.398438zm0 0"/></svg>